<svg width="180" height="48" viewBox="0 0 180 48" fill="none" xmlns="http://www.w3.org/2000/svg">
  <defs>
    <linearGradient id="paint0_linear" x1="0" y1="0" x2="180" y2="48" gradientUnits="userSpaceOnUse">
      <stop stop-color="#7B3FE4" />
      <stop offset="1" stop-color="#34F4FF" />
    </linearGradient>
    <linearGradient id="paint1_linear" x1="0" y1="0" x2="0" y2="48" gradientUnits="userSpaceOnUse">
      <stop stop-color="#FFFFFF" stop-opacity="0.85" />
      <stop offset="1" stop-color="#C4C8D4" stop-opacity="0.9" />
    </linearGradient>
  </defs>
  <rect x="1" y="1" width="178" height="46" rx="16" stroke="url(#paint0_linear)" stroke-width="2" fill="rgba(7,3,15,0.65)" />
  <path d="M36 34L27 14H33.2L38 26L42.8 14H49L40 34H36Z" fill="url(#paint0_linear)" />
  <path d="M60 32C58.3431 32 57 30.6569 57 29V19C57 17.3431 58.3431 16 60 16H70C71.6569 16 73 17.3431 73 19V20.5H65.4V23.2H72.6V26H65.4V29.5H73V32H60Z" fill="url(#paint1_linear)" />
  <text x="86" y="30" font-family="'Space Grotesk', sans-serif" font-size="16" font-weight="600" fill="#F4F4F8">WebMind</text>
</svg>
